<mxfile host="app.diagrams.net" modified="2023-04-12T06:24:30.873Z" agent="Mozilla/5.0 (Windows NT 10.0; Win64; x64) AppleWebKit/537.36 (KHTML, like Gecko) Chrome/111.0.0.0 Safari/537.36" etag="RdXQ3eiYzp1eDZqGZRHE" version="21.1.6" type="device">
  <diagram name="Page-1" id="NYEE8YY8GuogG79FqRoy">
    <mxGraphModel dx="880" dy="395" grid="1" gridSize="10" guides="1" tooltips="1" connect="1" arrows="1" fold="1" page="1" pageScale="1" pageWidth="850" pageHeight="1100" math="0" shadow="0">
      <root>
        <mxCell id="0" />
        <mxCell id="1" parent="0" />
        <mxCell id="SwFzQJ-r2ychIRKFc7TG-1" value="Students" style="rounded=0;whiteSpace=wrap;html=1;fontFamily=Ubuntu Mono;fontSource=https%3A%2F%2Ffonts.googleapis.com%2Fcss%3Ffamily%3DUbuntu%2BMono;fontSize=25;strokeWidth=3;gradientColor=none;fillColor=#E6E6E6;strokeColor=default;fontStyle=1" vertex="1" parent="1">
          <mxGeometry x="320" y="280" width="120" height="40" as="geometry" />
        </mxCell>
        <mxCell id="SwFzQJ-r2ychIRKFc7TG-2" value="Mobile" style="ellipse;whiteSpace=wrap;html=1;fontFamily=Ubuntu Mono;fontSource=https%3A%2F%2Ffonts.googleapis.com%2Fcss%3Ffamily%3DUbuntu%2BMono;fontSize=20;strokeWidth=3;fillColor=#E6E6E6;strokeColor=default;" vertex="1" parent="1">
          <mxGeometry x="320" y="150" width="80" height="50" as="geometry" />
        </mxCell>
        <mxCell id="SwFzQJ-r2ychIRKFc7TG-3" value="Age" style="ellipse;whiteSpace=wrap;html=1;fontFamily=Ubuntu Mono;fontSource=https%3A%2F%2Ffonts.googleapis.com%2Fcss%3Ffamily%3DUbuntu%2BMono;fontSize=20;strokeWidth=3;fillColor=#E6E6E6;strokeColor=default;dashed=1;dashPattern=1 2;" vertex="1" parent="1">
          <mxGeometry x="490" y="210" width="50" height="50" as="geometry" />
        </mxCell>
        <mxCell id="SwFzQJ-r2ychIRKFc7TG-4" value="Name" style="ellipse;whiteSpace=wrap;html=1;fontFamily=Ubuntu Mono;fontSource=https%3A%2F%2Ffonts.googleapis.com%2Fcss%3Ffamily%3DUbuntu%2BMono;fontSize=20;strokeWidth=3;fillColor=#E6E6E6;strokeColor=default;" vertex="1" parent="1">
          <mxGeometry x="470" y="340" width="70" height="40" as="geometry" />
        </mxCell>
        <mxCell id="SwFzQJ-r2ychIRKFc7TG-5" value="FN" style="ellipse;whiteSpace=wrap;html=1;fontFamily=Ubuntu Mono;fontSource=https%3A%2F%2Ffonts.googleapis.com%2Fcss%3Ffamily%3DUbuntu%2BMono;fontSize=20;strokeWidth=3;fillColor=#E6E6E6;strokeColor=default;" vertex="1" parent="1">
          <mxGeometry x="580" y="355" width="40" height="40" as="geometry" />
        </mxCell>
        <mxCell id="SwFzQJ-r2ychIRKFc7TG-6" value="LN" style="ellipse;whiteSpace=wrap;html=1;fontFamily=Ubuntu Mono;fontSource=https%3A%2F%2Ffonts.googleapis.com%2Fcss%3Ffamily%3DUbuntu%2BMono;fontSize=20;strokeWidth=3;fillColor=#E6E6E6;strokeColor=default;" vertex="1" parent="1">
          <mxGeometry x="540" y="405" width="40" height="40" as="geometry" />
        </mxCell>
        <mxCell id="SwFzQJ-r2ychIRKFc7TG-8" value="Email ID" style="ellipse;whiteSpace=wrap;html=1;fontFamily=Ubuntu Mono;fontSource=https%3A%2F%2Ffonts.googleapis.com%2Fcss%3Ffamily%3DUbuntu%2BMono;fontSize=20;strokeWidth=3;fillColor=#E6E6E6;strokeColor=default;" vertex="1" parent="1">
          <mxGeometry x="210" y="375" width="120" height="50" as="geometry" />
        </mxCell>
        <mxCell id="SwFzQJ-r2ychIRKFc7TG-10" value="" style="ellipse;whiteSpace=wrap;html=1;fontFamily=Ubuntu Mono;fontSource=https%3A%2F%2Ffonts.googleapis.com%2Fcss%3Ffamily%3DUbuntu%2BMono;fontSize=20;strokeWidth=3;fillColor=none;strokeColor=default;" vertex="1" parent="1">
          <mxGeometry x="200" y="365" width="140" height="70" as="geometry" />
        </mxCell>
        <mxCell id="SwFzQJ-r2ychIRKFc7TG-11" value="E No." style="ellipse;whiteSpace=wrap;html=1;fontFamily=Ubuntu Mono;fontSource=https%3A%2F%2Ffonts.googleapis.com%2Fcss%3Ffamily%3DUbuntu%2BMono;fontSize=20;strokeWidth=3;fillColor=#E6E6E6;strokeColor=default;fontStyle=4" vertex="1" parent="1">
          <mxGeometry x="160" y="220" width="80" height="50" as="geometry" />
        </mxCell>
        <mxCell id="SwFzQJ-r2ychIRKFc7TG-12" value="" style="endArrow=none;html=1;rounded=0;exitX=0.5;exitY=0;exitDx=0;exitDy=0;entryX=0;entryY=1;entryDx=0;entryDy=0;strokeWidth=2;" edge="1" parent="1" source="SwFzQJ-r2ychIRKFc7TG-10" target="SwFzQJ-r2ychIRKFc7TG-1">
          <mxGeometry width="50" height="50" relative="1" as="geometry">
            <mxPoint x="400" y="460" as="sourcePoint" />
            <mxPoint x="450" y="410" as="targetPoint" />
          </mxGeometry>
        </mxCell>
        <mxCell id="SwFzQJ-r2ychIRKFc7TG-14" value="" style="endArrow=none;html=1;rounded=0;entryX=1;entryY=1;entryDx=0;entryDy=0;strokeWidth=2;exitX=0;exitY=0;exitDx=0;exitDy=0;" edge="1" parent="1" source="SwFzQJ-r2ychIRKFc7TG-4" target="SwFzQJ-r2ychIRKFc7TG-1">
          <mxGeometry width="50" height="50" relative="1" as="geometry">
            <mxPoint x="550" y="300" as="sourcePoint" />
            <mxPoint x="330" y="330" as="targetPoint" />
          </mxGeometry>
        </mxCell>
        <mxCell id="SwFzQJ-r2ychIRKFc7TG-15" value="" style="endArrow=none;html=1;rounded=0;exitX=0;exitY=0;exitDx=0;exitDy=0;strokeWidth=2;entryX=0.5;entryY=1;entryDx=0;entryDy=0;" edge="1" parent="1" source="SwFzQJ-r2ychIRKFc7TG-6" target="SwFzQJ-r2ychIRKFc7TG-4">
          <mxGeometry width="50" height="50" relative="1" as="geometry">
            <mxPoint x="560" y="461" as="sourcePoint" />
            <mxPoint x="490" y="410" as="targetPoint" />
          </mxGeometry>
        </mxCell>
        <mxCell id="SwFzQJ-r2ychIRKFc7TG-16" value="" style="endArrow=none;html=1;rounded=0;exitX=0;exitY=0.5;exitDx=0;exitDy=0;strokeWidth=2;entryX=1;entryY=0.5;entryDx=0;entryDy=0;" edge="1" parent="1" source="SwFzQJ-r2ychIRKFc7TG-5" target="SwFzQJ-r2ychIRKFc7TG-4">
          <mxGeometry width="50" height="50" relative="1" as="geometry">
            <mxPoint x="556" y="421" as="sourcePoint" />
            <mxPoint x="530" y="388" as="targetPoint" />
          </mxGeometry>
        </mxCell>
        <mxCell id="SwFzQJ-r2ychIRKFc7TG-17" value="" style="endArrow=none;html=1;rounded=0;exitX=0;exitY=0;exitDx=0;exitDy=0;entryX=0.975;entryY=0.72;entryDx=0;entryDy=0;strokeWidth=2;entryPerimeter=0;" edge="1" parent="1" source="SwFzQJ-r2ychIRKFc7TG-1" target="SwFzQJ-r2ychIRKFc7TG-11">
          <mxGeometry width="50" height="50" relative="1" as="geometry">
            <mxPoint x="520" y="381" as="sourcePoint" />
            <mxPoint x="450" y="330" as="targetPoint" />
          </mxGeometry>
        </mxCell>
        <mxCell id="SwFzQJ-r2ychIRKFc7TG-18" value="" style="endArrow=none;html=1;rounded=0;strokeWidth=2;" edge="1" parent="1" source="SwFzQJ-r2ychIRKFc7TG-2">
          <mxGeometry width="50" height="50" relative="1" as="geometry">
            <mxPoint x="530" y="391" as="sourcePoint" />
            <mxPoint x="360" y="280" as="targetPoint" />
          </mxGeometry>
        </mxCell>
        <mxCell id="SwFzQJ-r2ychIRKFc7TG-19" value="" style="endArrow=none;html=1;rounded=0;exitX=-0.04;exitY=0.74;exitDx=0;exitDy=0;entryX=1;entryY=0;entryDx=0;entryDy=0;strokeWidth=2;exitPerimeter=0;" edge="1" parent="1" source="SwFzQJ-r2ychIRKFc7TG-3" target="SwFzQJ-r2ychIRKFc7TG-1">
          <mxGeometry width="50" height="50" relative="1" as="geometry">
            <mxPoint x="540" y="401" as="sourcePoint" />
            <mxPoint x="470" y="350" as="targetPoint" />
          </mxGeometry>
        </mxCell>
      </root>
    </mxGraphModel>
  </diagram>
</mxfile>
